<svg xmlns="http://www.w3.org/2000/svg" viewBox="0 0 210 210"><title>3d squareArtboard 19 copy 6</title><g id="Layer_1" data-name="Layer 1"><path d="M71.81,200.25a61.73,61.73,0,0,0,55.83-88,28.35,28.35,0,0,0-17.56,26.23,38.39,38.39,0,1,1-32.4-37.89A71.85,71.85,0,0,1,95.17,81.39a61.84,61.84,0,0,0-54.3,3.72l-7.51,4.36V10H10V200.17H33.36V187.59L40.87,192A61.7,61.7,0,0,0,71.81,200.25Z"/><path d="M168.31,191.71l7.5-4.33v12.79h23.36V141.29c.05-.91.07-1.85.08-2.79v-.36c0-.91,0-1.81-.07-2.71V71.72A61.8,61.8,0,0,0,137.44,10H109.08V33.36h28.36a38.41,38.41,0,0,1,38.37,38.36V89.34L168.31,85a61.74,61.74,0,0,0-92.5,53.12v.43a61.91,61.91,0,0,0,5.92,26,28.38,28.38,0,0,0,17.35-26.15,38.37,38.37,0,0,1,76.73,0h0a38.44,38.44,0,0,1-38.36,38,37.76,37.76,0,0,1-5.52-.4,71.88,71.88,0,0,1-17.48,19.38,61.83,61.83,0,0,0,53.87-3.74Z"/></g></svg>