<svg id="Layer_1" data-name="Layer 1" xmlns="http://www.w3.org/2000/svg" viewBox="0 0 58 58"><defs><style>.cls-1{fill:none;stroke:#000;stroke-miterlimit:10;}</style></defs><title>Artboard 8 copy 24</title><path class="cls-1" d="M29,36.32A7.33,7.33,0,1,1,21.66,29a7.19,7.19,0,0,1,1.86.24A14.73,14.73,0,0,1,29,23.64a14.69,14.69,0,0,0-14.68,0V7H7V51h7.33V49A14.67,14.67,0,0,0,34.5,29.22,7.33,7.33,0,0,0,29,36.32Z"/><path class="cls-1" d="M51,36.3v0h0c0-.22,0-.43,0-.65V21.66A14.66,14.66,0,0,0,36.32,7H29v7.33h7.33a7.33,7.33,0,0,1,7.33,7.33v2a14.66,14.66,0,0,0-22,12.62h0v.07h0a14.65,14.65,0,0,0,1.85,7.09A7.33,7.33,0,0,0,29,36.32a7.33,7.33,0,1,1,14.66,0v0a7.32,7.32,0,0,1-9.1,7.08A14.7,14.7,0,0,1,29.07,49a14.67,14.67,0,0,0,14.58,0v2H51V37c0-.22,0-.45,0-.68h0v0Z"/></svg>