<svg id="Layer_1" data-name="Layer 1" xmlns="http://www.w3.org/2000/svg" viewBox="0 0 58 58"><defs><style>.cls-1{fill:#b3b3b3;}.cls-2{fill:#1a1a1a;}.cls-3{fill:blue;}.cls-4{fill:#ed1e79;}</style></defs><title>Artboard 8 copy 14</title><path class="cls-1" d="M44,36.37a7.41,7.41,0,1,1-14.82,0H21.83v0A14.83,14.83,0,0,0,44,49.23v2h7.4V37.13c0-.24,0-.49,0-.74v0Z"/><path class="cls-2" d="M21.83,21.65a14.7,14.7,0,0,0-7.42,2V6.81H7V51.26h7.41v-2a14.81,14.81,0,1,0,7.42-27.63Zm0,22.2a7.41,7.41,0,1,1,7.41-7.41A7.4,7.4,0,0,1,21.81,43.85Z"/><path class="cls-1" d="M36.65,21.65A14.81,14.81,0,0,0,21.83,36.44h7.39a7.41,7.41,0,0,1,14.82,0h7.42c0-.24,0-.48,0-.72V21.63A14.82,14.82,0,0,0,36.63,6.81H29.22v7.41h7.41A7.41,7.41,0,0,1,44,21.63v2A14.81,14.81,0,0,0,36.65,21.65Z"/><path class="cls-3" d="M21.8,36.41v0Z"/><path class="cls-3" d="M51.43,36.45v0h0Z"/><path class="cls-3" d="M21.8,36.45v0h0Z"/><path class="cls-3" d="M51.43,36.41v0Z"/><path class="cls-3" d="M29.19,36.48v0a7.39,7.39,0,0,1,5.56-7.13,14.81,14.81,0,0,0-5.55-5.64,15,15,0,0,0-5.55,5.64,7.42,7.42,0,0,1,5.53,7.1A.17.17,0,0,1,29.19,36.48Z"/><path class="cls-4" d="M29.19,36.44v0h0a.17.17,0,0,1,0,.07,7.41,7.41,0,0,1-5.52,7.16,14.82,14.82,0,0,0,5.6,5.65A14.82,14.82,0,0,0,34.8,43.6,7.41,7.41,0,0,1,29.19,36.44Z"/><path class="cls-4" d="M51.43,36.41v0Z"/><path class="cls-4" d="M51.43,36.45v0h0Z"/><path class="cls-4" d="M21.8,36.45v0h0Z"/><path class="cls-4" d="M21.8,36.41v0Z"/></svg>